<svg id="Layer_1" data-name="Layer 1" xmlns="http://www.w3.org/2000/svg" viewBox="0 0 612 715"><defs><style>.cls-1{fill-rule:evenodd;}</style></defs><title>Artboard 1</title><path class="cls-1" d="M263.52,704.71c-.11-.16-.21-.3-.32-.43h-.12Zm-.32-.43h.07l-.1,0Zm1.88,1.94-1.56-1.51C264,705.49,264.56,706.47,265.08,706.22ZM295,507.5c-1.09,3.32-.47,2,1.33,5.16l1.33,1.28-4-.64c2.19,3,3.81,3.49,7.32,7.1-.53,2.47-.67,3.37.67,4.52-.22.86-.45,1.72-.67,2.58-4.09,1.07-5.38,1.39-10,.64,2-6.11-.58-16.66-11.32-21.29a30.79,30.79,0,0,1-.66-12.26c-13.91-4.15-23.8-58.84-30.61-65.81l1.33-3.23-2,1.29c-1.74-3.11-4.75-6.73-3.33-10.33l-5.33-1.29,2-3.22h-2c-1.47,1.73-15.58,3.25-20,3.22l-.66,1.29,2.66,6.45c-2.8-.26-5.83,7-3.33,11.61,8.18,15.1,8.33,29.79,14.65,45.81,3.33,8.47,7.88,17.42,10,26.46,1.51,6.51,0,13.79,3.33,20.65,17.41,36.12,29.34,83.17,45.92,116.77,7.72-1.17,35.34-6.71,37.27-11.62,1.38,1.25,1-.51,1.33,1.29,3.14-1.06,1.68.1,2-2.58,1.86-1.22,1,.07,1.33,1.93,4.75-3.68,9.55-7.45,17.31-8.38-1.2-1.3,0-.48-2-1.29,1.26-3,3.72-2.22,8,0,.61-3,1-.73-1.33-3.23v-.64l1.33,1.29c4.13.43,4.52.22,6.66-2.58h-2.66c1.5-2.13.69-1.93,4-2.58,1.46-1,4.24,1.17,8.65-1.29,5.27-2.93,7.27-8.82,14-11.61q.34-1,.67-1.94l-2.66-.64c7.67-9.32,16-19.07,22.63-31-1.33-1.33-1.08-.47-2-2.58-2.57.4-1.2.53-4.66,1.29.57-4.33-4-13.41-7.32-14.2l4-8.38,8,3.23,1.33-1.29c-4.74-13.64-12.3-17.18-18.63-27.74l8-1.29c-2.42-7.11-14.94-4.45-22-7.1C350.72,502.27,323.25,502.11,295,507.5Zm81.86,36.13v-1.29c7.36,2.62,8.93,14.29,5.33,21.94-8.51,18.08-16.94,16-30.61,29.67v1.29c2.25.79,1.64.58,4,.64l-2,1.29c2.61,4.46.16,8.93,4.66,15.48h-2.66c-2.09,1.73-2,2.46-3.33,5.17-5,1.13-14.57,2.14-16,3.22L335,617.18v-1.93c1.07,1.27.9.88,1.33,3.23,3.06-1.76,3.78-1.84,7.32,0,2.47-1.39,3.08-1.45,4-4.52-2.12-1.14-3-13.77-2.66-14.84-7.84,1.26-9.91,5.29-14.64,9v1.29c-1.31-2.57-.61-1.48,1.33-3.87l-1.33-1.29-16,7.09c-3.12.06-4.54.13-6-1.29-2.82-3.13-14-39.68-14-47.09-1.77-1.1-3.61-2.94-4-9a17.05,17.05,0,0,0,4-7.09c6.58-1.53,10.06-3.86,18.64-5.17.2-2,.15-1.28-.67-3.23,8.45-2.19,30.73-3.89,31.94-5.16h.67c1.09,2.32.88,1.3,4,1.94l-.67-1.94c3.71,1.61,4,2.63,9.31,1.94,1,1.55.4.73-1.33,1.29,1.09,2.63,1.71,1.28,4,2.58,1.32-1.63,3.52-3.36,4-5.16,3.6.42,10.85,5.59,11.32,9Zm235.06,47.75c-3.86-3.86-11.83-31-31-56.14-7.25-9.12-12.64-13.3-11-27.74-16.17-5.16-16.08-23.89-23.29-38.07-8.42-16.56-19.74-34-30-49-8.54-12.61-13.4-29.51-20.63-42.59,3.44-8.36,3.42-17.61,6-25.16,9.89-29.14,17-59.56,28.62-83.88,3.44-7.19,11.35-39.78,9.31-43.23l2.66.64c-.37-4.23,2.45-9.28,4.66-14.84H544.6c-.23-.64-.44-1.29-.67-1.93,1.69.08.78-.07,2.66.64,5.7-13.77,7.07-32.86,8.65-46.45,2.9-2.44,1.83-1.36,1.33-5.16-23-10.35-55.3-3.81-75.2-17.42-4.65-18.8,1.86-14.36,4.66-27.1.91-4.14-3.61-8.92,2-12.9,2.73-1.94,4.24-.24,8.65-6.45-2.26-2.94,2.62-5-1.33-6.45,2.41-3.45,4.13-2.7,2.66-7.1,4,.33,5.79-3.18,8.65-7.09-1.75-1.7.65-1-2-1.94v-.65l4,1.29c3.09-9.31,6.75-18.43,9.92-27.71,1.83-5.35,3.57-10.73,5-16.2.61-2.34,1.18-4.69,1.61-7.08.63-3.46-1-3.68-4.21-4.55-5.76-1.56-11.78-2.56-17.66-3.55a102.59,102.59,0,0,1-19.1-5.36c-5.68-2.07-12.29-1.34-18.2-1.8-2.67-.21-5.45-.15-8.1-.47s-3.83.64-6.66.21L421.15,54.84a24.84,24.84,0,0,1-3,0c1.7-7.16,14.86-25.12,15-24.61-4.3-5.16,1.57.36-8.61-1.45-11.39-2-27-1.87-39.75-4.36-3.2-.63-5.56-4.34-8.38-4.88-10.23-2-14.79-.2-14.4.36l-19.13,46.3,1.33.65-6,19.36a30.33,30.33,0,0,0-4.66,4.51v3.23l2.66-1.29c1.27,2.06.37,3.06,0,7.1l2,.65.67-4.52c2.62.46.15.69,2.66,0,2,1.32,1.13-.59,1.33-2.58,1.5,1.2.91,1.2,3.33,1.94-1,1.77.11.71-2,.64l.67,3.23,3.33-2.58c-2.25,3.38-5.07,4.28-6,9-1.06,1-.7.72.67,1.29l-2,1.29-2.66-3.87a18.61,18.61,0,0,0-6.65,3.23c-.22-1.51-.45-3-.67-4.52q-.33,4.84-.67,9.68c-8.22,5.17-26.72-3.27-35.94-5.16-22.13-4.54-89.71-19.77-104.49-14.84,0-2.41-2.44-4.35-5.33-5.8l-4.66,3.87,3.33,3.23c.48,2.19-1.07,3.5-3.33,6.45V101c2.18,3.13.65,2.89,4.66,3.23.76,7.2-.92,12.46,0,16.13-.66,4.39-.85,1.79-2.67,3.87,2.18,5.48-.75,21.94,5.33,25.81l-4,1.94v2.58c.48,2.51-2.45,3.58-1.33,7.74l2.67,3.87c-1.94,7.78-11.89,13.74-8.66,27.74,5.44,23.55,11.32,39.57,11.32,70.33-4.54,1.49-5.78,4.6-8.65,5.81-7.11,3-10.56-1.23-16.64-.64-32.93,3.15-57.64-4.47-91.18-4.52-2.62,18.34,6.82,32.58,13.31,45.81,3.9,8,3.32,19.19,4,27.74h3.33l2,3.23C96,347.06,91.5,354.8,88,356.52l2,3.87-2.67,1.29.51,2.47.45.69,5.7-1.23h.66c.14,2.2.81.93-.66,2.58,1.79,1.39,3,1.1,5.32.65,1.82,4,3.66,6,8,8.38l-.66,1.94-3.33.64q-.67-3.23-1.33-6.45c-4.88-.16-3.73,1.29-9.32,1.29-1.13-2.19-2.66-5.14-4.37-7.8l-.29.06-.15-.75a18.45,18.45,0,0,0-4.5-5.05l-4-1.94-2,.65c-.44,2.58-.89,5.16-1.33,7.74,1.75,1.9,6.58,2.49,10,3.87l.67,1.94L86,372.65l-8-3.23h-.66c-.65,4.52-1.33,9-2,13.55v.65c6-.49,6.22-2.83,10-5.16,3.3.19,4.29.45,6,1.94-7.15,4.46-84.1,29.78-91.06,26.79,0,.26.3.48.83.66l-.48,2.55L0,410.33c0,9.4,4.73,21.26,11.08,34l7-16c2.63,5.37-1.87,13.11-5.33,14.83l2,3.87-1.84.89q.83,1.61,1.68,3.23l4.15-.89h.66c.13,2.2.81.93-.66,2.58,1.79,1.39,3,1.1,5.32.65,1.82,4,3.66,6.05,8,8.38l-.66,1.94-3.33.64q-.67-3.23-1.33-6.45c-4.37-.14-3.92,1-7.79,1.24C30.75,481,43.77,503.34,43.77,518.95l0,0c0-.27,0-.54,0-.82a4.39,4.39,0,0,0,1.4,0c4.6-2.82,16.9-10.33,16.3-9.75,0,1.25-5.57,4.67-7.44,6.65,4-1.77,8-3.86,10-5.05a8.73,8.73,0,0,0,1.4-1c.17,0-.38.37-1.4,1-3,1.82-9.56,5-10.65,6.05a1.86,1.86,0,0,1,.61-1,39.75,39.75,0,0,1-8.87,3.1l-1.37.84c.9,38,33.48,59.66,33.93,97.87,2.07,14.6,9.6,31.56,18.37,40.65,1.6,1.28,3,.88,6.66.64v.64l-5.33,1.94c2.11,2.75,4.59,2.22,6,5.8,8.67,0,13.22-2.85,18-3.87s-9.45,7.94-2.73,4.91c4.56-2.07,8.53-7.61,14.65-8.4,20.88-2.69,43.66,4.77,61.23-9h.66l10,40c1.8,2.58,3.38,1.76,4.66,5.16,13.09,6.28,28.23-4.07,27.95-16.78l3.33-1.29-2,8.38c3.78-.21,5-.76,6,0l1.33-1.93c-1.84-1.37-.13-.38-2.66-.65-.08-2,.72-.4-.67-1.94v-.64l8.66,1.93h1.33c-1.93,3-3.7.86-6,3.22-1.78.89-.41.08,0,1.94-.1,1.1,1.53,3.77,4,5.16-2.46,2.31-3.87,1.7-6.66.65-3.45,2.76-2.67,11.31,2.66,12.91,1-6.18,8.38-12.64,10.65-14.2l.67,1.29c-1,1.7-.2,2.25-2.66,3.87v.65c5.66-1.75,6.71-6.67,12.65-7.11-1-2.82-1.65-2.91-3.33-3.23.22-.64.44-1.29.67-1.94l8,5.16,3.33-1.29c-3,3.57-4.93-.2-8.65,1.94,0,.44,1.64,1,2,3.88l3.33-.65c-1.21,1.3,0,.48-2,1.29,2.3,1.16,1.39.71,4,0l3.33,2.58c-2.08,2.32-.57,1.28-3.33,0-1.2,1.3,0,.48-2,1.29.91,2.2.55.66,2.66.64l-3.33,3.23-3.33-4.52c-1.26,3,0,3.84-3.33,5.17l1.33-2.58-3.33-1.29c-.22,1.08-.45,2.15-.67,3.23.67.21,1.33.42,2,.65h-2.48c10,4.11,41.38.41,53.06.26-1.36-10.79-4.94-15.08-4-23.49l3.33-5.81c8,.65,15.78-1,21.3-.64,4.31,6.07,12.32,22.37,10,27.75,1.88,1.84,2.58.12,3.33,3.35h1.33c.66-1.28,1.33-.78,2-2.06l1.33-.64c1.74,2,2.53.12,3.33,3.35,56.19-1.29,62.67-6.94,66.55-9.16l2,2.58,2-1.94c.31-1.42.36,0,1.33.64,0,0,2.46-25.24,2-26.46l-2.66-3.23,3.33-10.32,3.33-.64c-.86,1.92,0,.77-1.33,1.94v.65c4.44-.38,2.14-1.49,6.66-2.58l1.33,1.29h-3.33c3.94,1.52,6.33-.54,10-1.29,5.4-9.44,2.14-39.19,1.33-41.94,2.08.31.51.8,2-.64-4.1-12.29,6.41-33.14,4-44.51,1.28-1.71,1.06-1.68,3.33-2.58l1.33-1.29v1.29c1.22,2.53.63.88-1.33,3.22,7,8.5,19.32,26.39,28,39.35,5.6,8.41,6,18.16,11.31,27.1,3,5,8.09,9.95,10,16.13,4.62,1.58,9.3,3.86,13.31,1.93l4-4.51v-.65L524,653.31l-1.33.64c-.22-1.07-.44-2.15-.67-3.23,3,0,1.86.91,3.33-1.94,1.74,1,1.15,1.12,3.33,1.94,6.75-3.74,7.9-7.85,14-7.73.41-2.2.18-2.45-.67-4.52l6-1.94-4,3.88c1.57,1.86,4.87.82,6-3.23l2.66-2.58V634l-4,1.94c.95-3.13,1.24-3.21,4.66-3.88l-3.33-3.22c3.12.79,3.92,1.7,6,3.22l2.67-1.94h-2.67l-1.33-.64c4.06-2.27,3.38-.59,5.32-3.22.22.86.45,1.72.67,2.58l3.33-3.87c3,.72,2.89,1.06,4.66,2.58,4.88-3.87,8-7.74,12.83-11.61,0-11.35,18.08-12.63,18.08-12.63S613,592.42,611.94,591.38ZM418.13,55l2,.76a7.1,7.1,0,0,0-1.74,1.55A2.6,2.6,0,0,1,418.13,55Zm-.46,2.74.35,0c-.15.2-.29.4-.42.61C417.62,58.18,417.64,58,417.67,57.75Zm-8.17,53,1.33,1.94c1.55-1.52,1.44-1.75,4-2.58,1.66-3.65,2.2-5,0-7.74,7.63-2.85,31-51.07,38.39-64.6l23.68,18c.47,1.33.83,2.21,1.09,2.78.64.73.7,1.56,0,0-.79-.89-2.44-1.62-4.59,2.54l-2.66,10.32c-6.2,8.38-9.19,18.76-15.31,27.75L450.76,103q.33,5.49.66,11l-4.66.65-10.65,14.84-23.29-2.58c-4.38-1.71-1.56-4.09-6.65-5.16C407.62,116.6,409.13,115.3,409.5,110.7ZM361.86,73.4c1.84-.68,2.33-9.58,4.3-10.32,7-2.59,16-4,24.64-4.78,0,.11,0,.22,0,.33a5.3,5.3,0,0,1-.58-.06c1.85,5.73-2.06,10.31-3.36,17.3l3.33-1.94-2,5.16-2.66-1.29-6,12.9c1.33,2.58.13,1.25,2.66,1.29.15,2.88,1.51,2.88-1.33,2.58-1.77,8.41-5.9,9.74-6.65,18.71-8.65,4.14-14.3,6-22,2.58-1.35-7,9.5-22.88,9.32-33.55C361.73,82.53,352,77.06,361.86,73.4ZM126.72,631.63c-4-22.79-7.71-6.29-11.7-29.08-1.55-16.77-15.58-44.56-17.14-61.33-5.65-24.58-9.55-18.32-14.43-41.49C81.61,491,56.23,427.86,56.4,417.66c-29.17,20.07,6.6-7.2,6.31-7.22.09-.16,10.76.28,10.85.12.2.13.31.27.31.43,9.3-5.25,20.67-20.12,31.48-22.86,3.68,3.14,5.26,7.34,9.32,10.32-1.32,1-.91.87-3.33,1.29,3,17.09,13.61,38.19,21.29,54.84,5.88,12.74,5.47,24.36,10.65,38.07l8,15.49c1.45,10.6,2.57,22.51,7.31,34.84,8.2,21.29,23.51,48,26.62,74.84C179.89,625.69,139,635.61,126.72,631.63ZM419.48,401.69h-4c1.39,4.21,4.36,5.47,3.33,10.33-7.6-.24-17.1-4.67-18-7.74l-.67,2.58c-3.7-.87-5.72.18-4.66,5.8,7.7,5.3,17.9,5.2,27.29,4.52-.28,1.73,5.32,7.75,5.32,7.75l-2,3.22c10.5,11.39.56,26.7,1.33,43.23q-2,70.31-4,140.64c7.13,2.07,19.32,1.19,24.62.64v4.52c-5.41,1.81-9,8.29-9.32,12.9-3.69-.53-3.08-.2-5.33-1.94l-1.33,2.59-8.65-2.59c-.23,1.94-.44,3.87-.67,5.81-5.9-.25-8.07-.25-12,3.87-1.6-2.45-20.92-.7-27.95.65-20.29,3.88-45.91,1.78-63.89,7.1q-6.66-.34-13.31-.64c-3,.86-16,7.63-18,10.31l-8-2.58-8.65,6.46V654.6c-21.6.06-27.11,6.45-47.25,3.87-2.85-5.54-1.95-12.83-4.66-19.36-1.4-3.39-4.79-6.3-6.65-9-4.32-6.34-2-17.68-5.33-28.38-3.68-11.73-10.23-29.59-14.64-41.3-4.52-12-7-44.31-18-47.74,1.78-3.45,1.72-4,2-7.74-4.28-2.92-6.6-3-7.32-7.75-3.15,1.43-1.73.58-4.65,1.29l-2-.64c3-6.92,6.73-12.72,6-21.29-5.72-1.65-7.13-2.63-9.32-7.75h1.33l1.33-1.29v3.23l2.67-1.29-2-8.39c-2.45.13-.68-.35-2.66,1.29L158.59,461c1.42-1.51-.1-.86,2-.65.22-.86.44-1.72.67-2.58l-3.33-3.23c-.44-2.1-1-1.25,1.33-1.94-2.47-5.83-4.88-6.81-7.32-11-5.25-8.93-4.92-20.05-8-28.39,1.8-4.34.59-15.21-2-21.29-11.65-27.41-23-56.31-26-82.59,6.1.66,11.12,3.87,16.64,4.51l8-2.58,30.62,3.87h.66c.64-2.61,1.35-4.08.66-6.45,4.45,1.57,2.5,3.63,6,3.23-1.43,3-2.07,2.21-5.32,2.58v.65l10.64,2.58c3.84,3.82,1.79,5,7.33,6.45l-3.33-7.09c2.82,1.77,3.64,2.93,6,3.87.44,3.87.89,7.74,1.33,11.61l-3.32,1.29h2c-.44,1.29-.88,2.58-1.33,3.87l.67,1.29,5.32-2.58c-1.38,2.67-2.16,2.41-4.66,3.87h2c-.22,1.08-.44,2.15-.66,3.23-5.6-1.64-2-5.31-4.65-7.74v-1.29l-.66,3.22c-1.85-.33-.78,0-2.67-1.29l-1.33.64c-3,15.78,1.85,31.86-1.33,45.81,2.82,4.53,6,8.52,8,14.19,1.6,1,.75.39,1.33-1.29,1.38,1.76.51.34.67,3.23l18,4.52,22.62-.64c27.46,7.6,59.7,7.73,73.22,9l2.66-1.29v-.64c-7.34-6.87-17.32,3.19-24.63-5.81l-.66,2.58H285c-1.45-1.33-1.29-.87-2-3.23,4.07-.38,4-.16,6.66,1.94,4.66-4.24,8.8-5.74,16-3.23L307,399.1l2-1.29c-.26,3.07-.79,2,1.33,3.87H311c1-3.08.54-3.71,4-5.16l1.34-1.29c2.43,2.78.46,1.77-1.34,5.16,5-.22,3.44-.87,8-1.93l-1.34,1.93L325,399.1c1.85,2.73,2.76,4.25,6.66,5.17l-2,1.29c-1.09,2.88-.74,1.6.66,4.52L327,412l.67,1.29c5.92-.25,27.11,1.62,31.28-2.58l1.33-1.28-4.65.64-.67-1.29c2.6-1.65,5.53-1.41,10-1.94.43-3.38-.89-5.71,2.66-8.39.65,2,.76,1.8-.66,3.23,1.58,2,2.08,1.68,4.66,2.58,1.36,1.9-.61,1.1-2.66,1.29l-1.33,1.94c4.2,1.7,11.26,3.26,15.31,5.8l4.65-6.45c-.71-3-1.07-2.73-2.66-4.52l.67-.64,29.28,1.93v-1.29c-12.72-3.05-9.71-2.38-20-1.29l1.33-1.94c-10.1-.77-13.41-2.49-20-1.93,2.75-1.86,4.29-2.71,4.66-5.16l2-2.58.66.65c-.44,2.36-.89,4.73-1.33,7.09l1.33-3.23c4.49-.81,10.06-1.73,12.65-.64l1.33-.65.67-1.29h-12c1.91-6,6-8.44,8-13.55q1.67-9,3.33-18.07c20.61-3.77,28.07,7.36,45.92-7.09,4.23-3.43,9.81-4.95,12-10.32,9.43-23.38-8.71-51-29.95-58.07l-13.31-.64c-3.78-1.51-10.07-3.25-16-.65l-14,10.33c.5-5-11.17-9.71-15.31-12.9-23-17.82-48.28-15.77-75.87-11-1.41,5.12-4.34,7.82-7.32,12.9l-2,.65-1.33-2.58c2.21-2,3.75-2.33,5.33-5.16l-.67-1.29c-9.76,1.89-11.45,8.19-18,12.9.37,5.93,2,12.53-1.33,13.55-1.37.09-.12.1-1.33-1.29l-1.33,5.81h-2.66l.67-7.74h-.67c-5.31,4.51-5.3,10.39-6.66,18.07v.64l10-3.22,2,3.22v.64l-3.33-.64c1.52,2.37,2.3,1.38,3.33,4.52-3.62-1.16-3.05-.91-6,1.29-.11-2.42.72-1.19-2-2.58-2.17-1-.21-.54-2.66.65-.22-1.08-.45-2.15-.66-3.23h-.67c-1.25,7.94.78,12.76-.66,21.29,1.77-1.08.29-.34,2-.65.62,2.6,1.18,4.72-.66,6.45V339.1l-1.33-.65c.26,7.77,4.67,10,7.32,16.13,1.4,3.25-1.4,4.47-2,5.8,6.89,4.82,6.76,15.19,8,20.65L265.08,383c-14.55,2.65-26.89-2.86-39.93-3.87-10.16-15,1.75-30.85-4.66-46.45l2,1.29c-1.32-8,2-42.28-1.33-45.81l2-3.87c-2.16-1.62-1.85-52.39-1.33-56.13l-4,1.94V214.58l2.66.64c-2.27,1-.81,1-2,4.52l.66,1.94h2c-.49-5.19-.79-14,.67-17.42l-2-.65c-1.31,1.58-.38.26-.67,1.94-2.31-1.59-1.08-3.22-1.33-6.46l2.66.64c1.16-1.79.14-10.56.67-14.84l-2.66.64c4.4-5-1.13-17.68,4.66-28.39,4.16-4.3,9.42-2.35,10-8.39,5.07,1.82,7.86-1.4,12.65-.65,9.9,1.57,54.35,7,55.9,10.32,3.36-.79,3.18-3.15,7.33-.65l3.33-3.87c-.86-2.81-1.46-2.7-1.33-5.16-3.12.8-3.28,1.59-6,0l-2-1.93c3.41.36,5.3-1.68,8.66-3.23l4.66.64c1.57,2.4,1.25,3,2,5.81l-2,1.29-2,2.58c5,3.14,13.87,4.14,17.3,0,1.25-2.15,1.06-.92,0-2.58l19.3-.64c.92,1.4.93,2.57,3.33,3.87v-3.23l1.33-.64c.7,3,.85.71,0,3.23,1.73,1.26.62.63,2.66.64l1.33.65c0-2.46,0-1.34-.67-3.87h.67c1.86,2.67,1.35,1.89.66,4.52h4l1.33-1.94c-2.18-1.37,0-.24-3.33,0,2.4-3.75,7.33-4.62,11.31-5.16l2,5.16h-.67c-1.93-1.24-1.92-.34-4.66-1.94-1.61,2-1,3.92-.66,6.45-9.31,1.05-10.19-1.72-17.31,1.29.92-1.08,1.52-1.14,2.66-1.94l-.67-1.93-6,1.93c-.29-1.67.63-.35-.67-1.93l-.66,3.22-1.33.64v-2.58l-6-1.94-4,3.22c2.67,2,32.32,7.47,36.6,3.87.67-2.15,1.33-4.3,2-6.45,1.17-1.05,1.16-.29,4-.65l-3.33,3.22,2.66,1.94-3.33.64-.67,1.29c12.88,9.21,90.82,10.94,116.47,18.06,6.53,1.82,9.93-2.57,16-1.29-1.24,7.74-7.49,24-7.32,35.49l3.33-.65v.65c-10.1,11-8.25,33.49-12,47.74-11.93,45.72-19.61,90.21-26,142.59C448.25,407.88,436.41,397.32,419.48,401.69Zm137.1,169.69c-5.62,2-14.28,6.55-16,12.25l2,.65c-2,2-4.64,3-5.32,4.51-2.78-.78-4-1.24-4,3.87-7.6.54-8.88-.58-15.3,3.87-7.27-5.57-33-36.84-33.28-47.09h-3.33l-25.29-34.2c-2.72-8.79,3.93-20.51,6.65-24.51-2.69-2.83-1.11-10.87,0-14.85,0-2,5-8.17,8-9.68-1.39-1.08-1.32-1-4-1.29l-.66-3.87c5.34-5.67,16.25-5.72,23.29-7.75,1.77-5.54-1.49-9.78,0-13.55,1.12-2.83,3.4-3.4,3.33-7.1l.67-2.58c8.08,3.3,15.08,20.46,18,29.68q.33,5.49.66,11c3.59,8.21,10,17.81,14.64,27.1l2-1.94c3.34.64,3.11.06,4,3.23l-2-1.93c-1.87,2.46-1.14,2.51-4,3.87.59,2.77.68,3.18,2.66,4.52,1.49,4.61,6,3.45,8.66.65l2,3.87c-2.52,1.5-.73,2-3.33,3.87.21-2.4-.67-1.4-2-3.87l-3.33,3.87c2.83,5.39,6.43,7.22,9.32,11.62q.33,4.84.67,9.68c1.27,2.74,5.57,5.73,6.65,7.74,3.29,6.16,3,20.52,8.65,25.81ZM262.41,703.89c.23.13.49.23.75.35C262.91,703.95,262.66,703.77,262.41,703.89Z"/></svg>